<svg width="199" height="90" viewBox="0 0 199 90" fill="none" xmlns="http://www.w3.org/2000/svg">
<path d="M4.24555 26.8608V9.15842C4.24555 8.13442 2.95083 7.62242 0.361404 7.62242V6.54721C4.18669 4.80641 7.60003 3.16802 10.6014 1.63201L11.3076 2.86081C11.1899 2.91201 11.0281 3.01442 10.8221 3.16802C10.6161 3.29602 10.3513 3.71842 10.0276 4.43521C9.70394 5.12642 9.5421 5.98402 9.5421 7.00802V27.1296C9.5421 29.1264 9.40969 30.9825 9.14486 32.6976C8.88003 34.4385 8.55635 35.7696 8.17383 36.6912C7.79129 37.6384 7.39405 38.112 6.9821 38.112C6.24646 38.112 5.29014 37.92 4.11314 37.536C2.96555 37.152 1.9945 36.768 1.20002 36.384L0.00830078 35.808V34.656H1.50898C2.53887 34.656 3.24508 34.0672 3.62762 32.8896C4.03956 31.7121 4.24555 29.7024 4.24555 26.8608ZM13.9439 25.5936V12.8448C13.9439 12.6657 15.6211 12.0384 18.9756 10.9632C22.3301 9.86242 24.2574 9.31202 24.7576 9.31202C25.2578 9.31202 26.0081 9.83681 27.0087 10.8864C28.0385 11.936 28.5535 12.8832 28.5535 13.728V27.6288C28.5535 27.8337 26.935 28.4865 23.6983 29.5872C20.4909 30.6624 18.5194 31.2 17.7839 31.2C17.0776 31.2 16.2536 30.6496 15.3121 29.5488C14.3999 28.4481 13.9439 27.1296 13.9439 25.5936ZM21.4914 27.6672C22.0505 27.6672 22.6243 27.4624 23.2128 27.0528V15.7248C23.2128 13.8304 22.4625 12.8832 20.9618 12.8832C20.3732 12.8832 19.7994 13.0752 19.2404 13.4592V24.8256C19.2404 26.7201 19.9907 27.6672 21.4914 27.6672ZM47.0765 14.3808V25.248C47.0765 26.1952 47.2531 26.8608 47.6062 27.2448C47.9593 27.6033 48.5037 27.8592 49.2393 28.0128V28.8576L44.4283 31.2C43.781 30.9696 43.1778 30.5985 42.6186 30.0864C42.0596 29.5488 41.78 29.0625 41.78 28.6272L36.2627 31.2C36.1745 31.1488 36.0421 31.0848 35.8655 31.008C35.689 30.9057 35.38 30.7137 34.9386 30.432C34.5267 30.1248 34.1589 29.8048 33.8352 29.472C32.9524 28.6272 32.511 27.6672 32.511 26.592V20.2944C32.511 19.8849 33.2761 19.36 34.8062 18.72C36.3364 18.0801 37.8665 17.5552 39.3965 17.1456L41.7359 16.4928C41.7359 15.0336 41.2945 14.0224 40.4117 13.4592C39.529 12.8704 37.8223 12.576 35.2917 12.576V11.424C39.8527 10.016 42.4127 9.31202 42.9717 9.31202C43.9427 9.31202 44.8696 9.86242 45.7524 10.9632C46.6352 12.064 47.0765 13.2033 47.0765 14.3808ZM37.8076 25.2096C37.8076 25.8753 38.0283 26.4256 38.4696 26.8608C38.9405 27.2704 39.4554 27.4752 40.0145 27.4752C40.5736 27.4752 41.1621 27.2832 41.78 26.8992V18.2208C41.0444 18.4512 40.4854 18.6432 40.1027 18.7968C39.7496 18.9504 39.3672 19.1937 38.9552 19.5264C38.1902 20.1408 37.8076 21.2032 37.8076 22.7136V25.2096ZM45.8848 7.00802C45.1492 7.00802 44.1047 6.82881 42.751 6.47042C41.4269 6.08642 40.4117 5.89442 39.7055 5.89442C38.9993 5.89442 38.3961 5.99681 37.8959 6.20162C37.3957 6.40642 37.072 6.64961 36.9248 6.93122H35.9979L34.3207 4.12802C35.233 3.10401 36.1599 2.59201 37.1014 2.59201C38.043 2.59201 39.2495 2.77121 40.7207 3.12961C42.192 3.46241 43.163 3.62881 43.6338 3.62881C45.1051 3.62881 45.9879 3.30881 46.2821 2.66881H47.1648L48.8862 5.47201C47.9741 6.49601 46.9736 7.00802 45.8848 7.00802ZM51.0559 25.5936V12.8448C51.0559 12.6657 52.7331 12.0384 56.0876 10.9632C59.4421 9.86242 61.3695 9.31202 61.8696 9.31202C62.3699 9.31202 63.1203 9.83681 64.1207 10.8864C65.1506 11.936 65.6655 12.8832 65.6655 13.728V27.6288C65.6655 27.8337 64.0472 28.4865 60.8103 29.5872C57.603 30.6624 55.6316 31.2 54.8959 31.2C54.1896 31.2 53.3658 30.6496 52.4241 29.5488C51.512 28.4481 51.0559 27.1296 51.0559 25.5936ZM58.6034 27.6672C59.1626 27.6672 59.7364 27.4624 60.3248 27.0528V15.7248C60.3248 13.8304 59.5745 12.8832 58.0738 12.8832C57.4854 12.8832 56.9116 13.0752 56.3524 13.4592V24.8256C56.3524 26.7201 57.1028 27.6672 58.6034 27.6672ZM83.7662 26.0544C83.7662 26.6944 83.9723 27.232 84.3841 27.6672C84.7961 28.1025 85.2375 28.32 85.7083 28.32C86.1792 28.32 86.8559 28.128 87.7386 27.744V8.73602C87.7386 7.78882 87.621 7.11041 87.3855 6.70082C87.1796 6.29122 86.7088 6.08642 85.9731 6.08642V4.89601L95.0214 1.59361L95.7276 2.82241C95.0803 2.82241 94.4771 3.15521 93.9179 3.82081C93.3589 4.46081 93.0793 5.43362 93.0793 6.73922V27.6288C93.0793 27.8592 91.5051 28.512 88.3565 29.5872C85.2081 30.6624 83.1778 31.2 82.2655 31.2C81.3534 31.2 80.4854 30.5985 79.6614 29.3952C78.8669 28.192 78.4697 27.1296 78.4697 26.208V7.27682C78.4697 5.86882 77.7488 5.03681 76.3069 4.78081V3.93601L81.1179 1.59361C81.7654 1.82401 82.3685 2.20801 82.9276 2.74562C83.4867 3.25762 83.7662 3.74401 83.7662 4.20481V26.0544ZM102.775 11.9232V25.5168C102.775 27.0784 103.378 27.9616 104.585 28.1664V29.0112L100.127 31.2C99.4792 30.9696 98.876 30.5985 98.317 30.0864C97.7578 29.5488 97.4783 29.0496 97.4783 28.5888V14.9952C97.4783 13.4337 96.875 12.5505 95.6687 12.3456V11.5008L100.127 9.31202C100.774 9.54242 101.377 9.92642 101.936 10.464C102.495 10.976 102.775 11.4624 102.775 11.9232ZM96.8163 4.51201V2.16961C96.8163 2.09281 97.4194 1.86241 98.6259 1.47841C99.8618 1.06881 100.568 0.864014 100.745 0.864014C100.95 0.864014 101.23 1.08161 101.583 1.51681C101.966 1.95202 102.157 2.40001 102.157 2.86081V5.66401C102.157 5.74082 101.568 5.98402 100.391 6.39362C99.2143 6.77762 98.4935 6.96962 98.2287 6.96962C97.9639 6.96962 97.6549 6.75202 97.3018 6.31682C96.9781 5.85602 96.8163 5.25442 96.8163 4.51201ZM112.473 5.31842V9.88801H114.724L114.283 11.7696H112.473V25.5168C112.473 27.0784 113.076 27.9616 114.283 28.1664V29.0112L109.825 31.2C109.178 30.9696 108.574 30.5985 108.015 30.0864C107.456 29.5488 107.177 29.0496 107.177 28.5888V11.808H105.367L105.808 10.1952C106.691 10.1952 107.75 9.68321 108.986 8.65922C110.252 7.60961 111.002 6.49601 111.237 5.31842H112.473ZM116.875 25.5936V12.8448C116.875 12.6657 118.552 12.0384 121.907 10.9632C125.261 9.86242 127.188 9.31202 127.689 9.31202C128.189 9.31202 128.939 9.83681 129.94 10.8864C130.969 11.936 131.485 12.8832 131.485 13.728V27.6288C131.485 27.8337 129.866 28.4865 126.629 29.5872C123.422 30.6624 121.45 31.2 120.715 31.2C120.009 31.2 119.185 30.6496 118.243 29.5488C117.331 28.4481 116.875 27.1296 116.875 25.5936ZM124.422 27.6672C124.982 27.6672 125.555 27.4624 126.144 27.0528V15.7248C126.144 13.8304 125.394 12.8832 123.893 12.8832C123.304 12.8832 122.73 13.0752 122.171 13.4592V24.8256C122.171 26.7201 122.922 27.6672 124.422 27.6672ZM133.721 11.616L138.576 9.31202C138.782 9.36322 139.018 9.44002 139.283 9.54242C139.576 9.61922 139.958 9.86242 140.43 10.272C140.93 10.6816 141.181 11.1424 141.181 11.6544C141.327 11.6032 142.019 11.2064 143.255 10.464C144.52 9.69602 145.33 9.31202 145.683 9.31202C146.623 9.31202 147.506 9.84962 148.331 10.9248C149.154 12 149.567 12.9856 149.567 13.8816V15.7632L145.021 17.9904L144.27 17.4528C144.27 15.3024 144.034 14.0736 143.564 13.7664C143.034 13.4337 142.24 13.2672 141.181 13.2672V25.5168C141.181 27.0784 141.783 27.9616 142.99 28.1664V29.0112L138.532 31.2C137.884 30.9696 137.281 30.5985 136.722 30.0864C136.163 29.5488 135.883 29.0496 135.883 28.5888V15.84C135.883 14.7136 135.648 13.8688 135.177 13.3056C134.736 12.7425 134.25 12.4608 133.721 12.4608V11.616Z" fill="black"/>
<path d="M50.6709 48.8352C50.2295 48.8352 49.8323 49.0272 49.4792 49.4112V73.2C49.4792 74.8128 49.5895 76.1184 49.8102 77.1168C50.0309 78.0768 50.5164 79.0368 51.2668 79.9968C52.7233 81.84 56.0557 82.7616 61.264 82.7616V84.432C61.0433 84.432 59.4102 84.9696 56.3647 86.0448C53.3192 87.0816 51.4654 87.6 50.8033 87.6C48.5964 87.6 46.4999 86.5056 44.5136 84.3168C42.5274 82.0896 41.5343 79.7472 41.5343 77.2896V48.5472C41.5343 48.2784 44.0502 47.3376 49.0819 45.7248C54.1578 44.0736 57.0709 43.248 57.8212 43.248C58.0861 43.248 58.395 43.8048 58.7481 44.9184C59.1012 46.032 59.4985 47.376 59.9398 48.9504C60.4254 50.5248 60.9109 51.696 61.3964 52.464C61.9261 53.1936 62.8971 53.5584 64.3095 53.5584V54.7104C63.3385 55.0944 61.6833 55.7856 59.344 56.784C57.0488 57.744 55.813 58.224 55.6364 58.224C54.9743 58.224 54.1357 56.6688 53.1205 53.5584C52.1054 50.4096 51.2888 48.8352 50.6709 48.8352ZM68.3016 79.1904V48.5472C68.3016 48.2784 70.8175 47.3376 75.8492 45.7248C80.881 44.0736 83.772 43.248 84.5223 43.248C85.2727 43.248 86.3982 44.0352 87.8989 45.6096C89.4437 47.184 90.2161 48.6048 90.2161 49.872V82.2432C90.2161 82.5504 87.7885 83.5296 82.9334 85.1808C78.1223 86.7936 75.1651 87.6 74.0616 87.6C73.0023 87.6 71.7665 86.7744 70.3541 85.1232C68.9858 83.472 68.3016 81.4944 68.3016 79.1904ZM79.623 82.3008C80.4616 82.3008 81.3223 81.9936 82.2051 81.3792V52.8672C82.2051 50.0256 81.0796 48.6048 78.8285 48.6048C77.9458 48.6048 77.0851 48.8928 76.2465 49.4688V78.0384C76.2465 80.88 77.372 82.3008 79.623 82.3008ZM107.341 48.8928C106.547 48.8928 105.686 49.1808 104.759 49.7568V68.4768C105.907 68.4768 107.187 68.1696 108.599 67.5552C110.012 66.9024 110.718 66.2304 110.718 65.5392V53.1552C110.718 50.3136 109.592 48.8928 107.341 48.8928ZM96.8145 81.7248V51.888C96.8145 49.5456 95.9096 48.2208 94.1 47.9136V46.6464L100.787 43.3632C101.67 43.6704 102.552 44.2272 103.435 45.0336C104.318 45.84 104.759 46.5696 104.759 47.2224C109.614 44.6496 112.395 43.3632 113.101 43.3632C113.808 43.3632 114.911 44.1504 116.412 45.7248C117.957 47.2992 118.729 48.72 118.729 49.9872V66.1728C118.729 66.48 116.323 67.4592 111.512 69.1104C113.543 75.0624 115.926 79.0752 118.663 81.1488C119.899 82.032 121.157 82.4736 122.437 82.4736V84.2016C118.332 86.4672 115.728 87.6 114.624 87.6C113.168 87.6 111.314 85.2192 109.063 80.4576C106.856 75.696 105.664 72.5472 105.488 71.0112L104.759 71.184V78.7296C104.759 80.1504 104.936 81.168 105.289 81.7824C105.642 82.3968 106.37 82.704 107.474 82.704V84.4896L93.9014 89.4432L92.842 87.6C93.8131 87.6 94.74 87.1008 95.6227 86.1024C96.4172 85.1424 96.8145 83.6832 96.8145 81.7248ZM130.159 81.7248V51.1968L132.211 49.4688H128.04C125.348 49.4688 123.825 50.1024 123.472 51.3696H122.016L118.242 46.6464C118.771 45.9168 119.456 45.264 120.294 44.688C121.133 44.112 121.949 43.824 122.744 43.824H140.222C142.914 43.824 144.437 43.1904 144.79 41.9232H146.247L150.021 46.6464C149.491 47.376 148.807 48.0288 147.968 48.6048C147.13 49.1808 146.313 49.4688 145.518 49.4688H138.103V78.7296C138.103 80.1504 138.28 81.168 138.633 81.7824C138.986 82.3968 139.714 82.704 140.818 82.704V84.4896L127.246 89.4432L126.187 87.6C127.158 87.6 128.085 87.1008 128.967 86.1024C129.762 85.1424 130.159 83.6832 130.159 81.7248ZM158.71 48.8352C158.269 48.8352 157.872 49.0272 157.518 49.4112V64.6176H166.854V66L163.543 67.44H157.518V73.2C157.518 77.4624 158.004 79.9584 158.975 80.688C160.432 81.7632 162.021 82.3776 163.742 82.5312C165.463 82.6848 167.317 82.7616 169.303 82.7616V84.432C169.083 84.432 167.449 84.9696 164.404 86.0448C161.358 87.0816 159.505 87.6 158.843 87.6C157.474 87.6 155.576 86.6784 153.149 84.8352C150.765 82.992 149.574 80.9952 149.574 78.8448V48.5472C149.574 48.2784 152.089 47.3376 157.121 45.7248C162.197 44.0736 165.11 43.248 165.861 43.248C166.125 43.248 166.434 43.8048 166.787 44.9184C167.141 46.032 167.538 47.376 167.979 48.9504C168.465 50.5248 168.95 51.696 169.436 52.464C169.965 53.1936 170.936 53.5584 172.349 53.5584V54.7104C171.378 55.0944 169.723 55.7856 167.383 56.784C165.088 57.744 163.852 58.224 163.676 58.224C163.014 58.224 162.175 56.6688 161.16 53.5584C160.145 50.4096 159.328 48.8352 158.71 48.8352ZM162.087 31.728C163.455 32.7264 165.044 34.0128 166.854 35.5872C168.663 37.1616 169.568 38.1408 169.568 38.5248C169.568 38.9088 169.502 39.2928 169.369 39.6768C169.105 40.5216 168.818 40.944 168.509 40.944C167.979 40.944 166.677 40.368 164.603 39.216C162.572 38.0256 160.52 36.7008 158.445 35.2416C156.371 36.7008 154.296 38.0256 152.222 39.216C150.192 40.368 148.912 40.944 148.382 40.944C148.073 40.944 147.808 40.6368 147.587 40.0224C147.411 39.408 147.323 38.9664 147.323 38.6976C147.323 38.3904 147.499 38.0448 147.852 37.6608C148.249 37.2768 148.757 36.816 149.375 36.2784C149.993 35.7024 150.611 35.1648 151.229 34.6656C153.083 33.168 154.296 32.1696 154.87 31.6704C155.488 31.1328 156.614 30.864 158.247 30.864C159.924 30.864 161.204 31.152 162.087 31.728ZM180.379 69.2256C179.276 69.2256 178.327 68.496 177.532 67.0368C176.738 65.5776 176.341 63.792 176.341 61.68V49.6992C176.341 48.9696 178.658 47.7216 183.292 45.9552C187.927 44.1504 190.597 43.248 191.303 43.248C191.833 43.248 192.583 44.016 193.554 45.552C193.775 45.936 194.084 46.4544 194.481 47.1072C194.923 47.76 195.276 48.2976 195.541 48.72C196.114 49.6416 196.843 50.1024 197.725 50.1024V51.2544C197.019 51.5232 196.07 51.9264 194.878 52.464C192.098 53.808 190.597 54.48 190.376 54.48C189.714 54.48 188.876 53.3472 187.861 51.0816C186.889 48.816 186.095 47.6832 185.477 47.6832C184.683 47.6832 184.285 48.2592 184.285 49.4112V62.256C184.285 63.792 184.683 64.56 185.477 64.56C185.654 64.56 187.022 64.0608 189.582 63.0624C192.142 62.064 193.687 61.5648 194.216 61.5648C195.276 61.5648 196.203 62.3136 196.997 63.8112C197.836 65.2704 198.255 67.152 198.255 69.456V81.7248C198.255 82.4544 195.717 83.7216 190.641 85.5264C185.609 87.2928 182.718 88.176 181.968 88.176C181.659 88.176 181.306 87.8496 180.909 87.1968C180.512 86.544 179.982 85.6224 179.32 84.432C178.702 83.2032 178.128 82.1856 177.598 81.3792C177.113 80.5728 176.429 80.1696 175.546 80.1696V79.0176C176.252 78.7488 177.179 78.3456 178.327 77.808C181.152 76.464 182.674 75.792 182.895 75.792C183.557 75.792 184.484 77.1168 185.676 79.7664C186.912 82.416 187.838 83.7408 188.456 83.7408C188.898 83.7408 189.317 83.5872 189.714 83.28C190.112 82.9728 190.31 82.5504 190.31 82.0128V69.0528C190.31 67.3248 189.758 66.4608 188.655 66.4608C188.302 66.4608 186.912 66.9216 184.484 67.8432C182.056 68.7648 180.688 69.2256 180.379 69.2256Z" fill="black"/>
</svg>
